<svg xmlns="http://www.w3.org/2000/svg" viewBox="0 0 800 16"><path fill-rule="evenodd" d="M0.0 5.58 1.0 5.55 2.0 5.51 3.0 5.48 4.0 5.44 5.0 5.42 6.0 5.41 7.0 5.40 8.0 5.39 9.0 5.38 10.0 5.36 11.0 5.37 12.0 5.37 13.0 5.38 14.0 5.38 15.0 5.31 16.0 5.08 17.0 4.84 18.0 4.61 19.0 4.38 20.0 4.14 21.0 4.06 22.0 4.08 23.0 4.10 24.0 4.12 25.0 4.14 26.0 4.18 27.0 4.35 28.0 4.52 29.0 4.69 30.0 4.85 31.0 5.02 32.0 5.13 33.0 4.99 34.0 4.85 35.0 4.72 36.0 4.58 37.0 4.56 38.0 4.65 39.0 4.73 40.0 4.73 41.0 4.72 42.0 4.71 43.0 4.70 44.0 4.69 45.0 4.67 46.0 4.65 47.0 4.63 48.0 4.61 49.0 4.59 50.0 4.57 51.0 4.51 52.0 4.42 53.0 4.34 54.0 4.25 55.0 4.17 56.0 4.08 57.0 4.08 58.0 4.09 59.0 4.10 60.0 4.11 61.0 4.15 62.0 4.20 63.0 4.25 64.0 4.33 65.0 4.40 66.0 4.50 67.0 4.59 68.0 4.69 69.0 4.67 70.0 4.64 71.0 4.62 72.0 4.61 73.0 4.61 74.0 4.68 75.0 4.79 76.0 4.89 77.0 5.00 78.0 5.01 79.0 4.85 80.0 4.70 81.0 4.56 82.0 4.50 83.0 4.44 84.0 4.56 85.0 4.68 86.0 4.81 87.0 4.93 88.0 5.06 89.0 5.17 90.0 5.28 91.0 5.39 92.0 5.50 93.0 5.61 94.0 5.72 95.0 5.75 96.0 5.73 97.0 5.71 98.0 5.69 99.0 5.68 100.0 5.67 101.0 5.65 102.0 5.64 103.0 5.59 104.0 5.53 105.0 5.48 106.0 5.43 107.0 5.37 108.0 5.31 109.0 5.45 110.0 5.64 111.0 5.83 112.0 5.84 113.0 5.73 114.0 5.62 115.0 5.52 116.0 5.41 117.0 5.39 118.0 5.45 119.0 5.50 120.0 5.56 121.0 5.61 122.0 5.67 123.0 5.80 124.0 5.94 125.0 5.98 126.0 6.01 127.0 6.04 128.0 6.06 129.0 6.05 130.0 5.98 131.0 5.92 132.0 5.87 133.0 5.82 134.0 5.77 135.0 5.72 136.0 5.73 137.0 5.86 138.0 5.99 139.0 6.11 140.0 6.05 141.0 5.99 142.0 5.94 143.0 5.88 144.0 5.82 145.0 5.82 146.0 5.89 147.0 5.95 148.0 6.02 149.0 6.08 150.0 6.15 151.0 6.22 152.0 6.31 153.0 6.39 154.0 6.48 155.0 6.48 156.0 6.42 157.0 6.36 158.0 6.31 159.0 6.25 160.0 6.19 161.0 6.13 162.0 6.07 163.0 6.01 164.0 6.10 165.0 6.49 166.0 6.89 167.0 6.80 168.0 6.71 169.0 6.63 170.0 6.54 171.0 6.50 172.0 6.48 173.0 6.35 174.0 6.10 175.0 5.86 176.0 5.76 177.0 5.72 178.0 5.68 179.0 5.68 180.0 6.22 181.0 6.77 182.0 7.31 183.0 7.85 184.0 7.44 185.0 6.50 186.0 5.56 187.0 5.61 188.0 5.66 189.0 5.77 190.0 5.89 191.0 6.00 192.0 6.12 193.0 6.24 194.0 6.27 195.0 6.17 196.0 6.06 197.0 5.98 198.0 6.04 199.0 6.10 200.0 6.17 201.0 6.23 202.0 6.29 203.0 6.29 204.0 6.09 205.0 5.90 206.0 5.71 207.0 5.52 208.0 5.33 209.0 5.30 210.0 5.34 211.0 5.38 212.0 5.40 213.0 5.30 214.0 5.20 215.0 5.10 216.0 5.04 217.0 5.05 218.0 5.08 219.0 5.15 220.0 5.23 221.0 5.31 222.0 5.39 223.0 5.47 224.0 5.55 225.0 5.59 226.0 5.61 227.0 5.63 228.0 5.65 229.0 5.70 230.0 5.79 231.0 5.89 232.0 5.99 233.0 6.10 234.0 6.28 235.0 6.47 236.0 6.65 237.0 6.84 238.0 6.87 239.0 6.80 240.0 6.67 241.0 6.53 242.0 6.39 243.0 6.25 244.0 6.37 245.0 6.55 246.0 6.74 247.0 6.92 248.0 6.90 249.0 6.82 250.0 6.75 251.0 6.67 252.0 6.46 253.0 6.26 254.0 6.07 255.0 5.90 256.0 5.83 257.0 6.18 258.0 6.54 259.0 6.81 260.0 6.80 261.0 6.79 262.0 6.78 263.0 6.79 264.0 6.79 265.0 6.80 266.0 6.81 267.0 6.82 268.0 6.79 269.0 6.54 270.0 6.28 271.0 6.02 272.0 5.78 273.0 6.03 274.0 6.27 275.0 6.52 276.0 6.76 277.0 6.90 278.0 7.01 279.0 6.79 280.0 6.49 281.0 6.19 282.0 5.96 283.0 6.21 284.0 6.45 285.0 6.69 286.0 6.94 287.0 6.59 288.0 6.11 289.0 6.04 290.0 6.10 291.0 6.16 292.0 6.23 293.0 6.26 294.0 6.22 295.0 6.18 296.0 6.14 297.0 6.10 298.0 6.04 299.0 5.98 300.0 6.01 301.0 6.13 302.0 6.26 303.0 6.38 304.0 6.51 305.0 6.98 306.0 7.46 307.0 7.94 308.0 8.33 309.0 8.11 310.0 7.61 311.0 7.47 312.0 7.46 313.0 7.22 314.0 6.93 315.0 6.63 316.0 6.34 317.0 6.43 318.0 6.51 319.0 6.59 320.0 6.68 321.0 6.73 322.0 6.69 323.0 6.64 324.0 6.59 325.0 6.54 326.0 6.59 327.0 7.01 328.0 7.31 329.0 6.92 330.0 6.53 331.0 6.45 332.0 6.40 333.0 6.35 334.0 6.31 335.0 6.31 336.0 6.53 337.0 6.74 338.0 6.96 339.0 7.18 340.0 7.40 341.0 7.50 342.0 7.39 343.0 7.27 344.0 7.17 345.0 7.09 346.0 6.99 347.0 6.87 348.0 6.76 349.0 6.65 350.0 6.54 351.0 6.43 352.0 6.36 353.0 6.59 354.0 6.81 355.0 7.03 356.0 7.06 357.0 7.06 358.0 7.06 359.0 7.27 360.0 7.83 361.0 8.39 362.0 8.75 363.0 7.96 364.0 7.16 365.0 6.37 366.0 6.05 367.0 5.95 368.0 5.86 369.0 5.77 370.0 5.74 371.0 5.84 372.0 5.95 373.0 6.05 374.0 6.01 375.0 5.97 376.0 5.93 377.0 5.88 378.0 5.83 379.0 5.77 380.0 5.80 381.0 5.83 382.0 5.87 383.0 5.94 384.0 6.14 385.0 6.55 386.0 6.96 387.0 7.37 388.0 7.71 389.0 7.50 390.0 7.29 391.0 7.07 392.0 6.86 393.0 6.65 394.0 6.51 395.0 6.36 396.0 6.22 397.0 6.03 398.0 5.83 399.0 5.63 400.0 5.77 401.0 5.90 402.0 6.04 403.0 6.17 404.0 6.30 405.0 6.19 406.0 6.01 407.0 5.84 408.0 6.06 409.0 6.34 410.0 6.57 411.0 6.35 412.0 6.14 413.0 5.92 414.0 5.78 415.0 5.74 416.0 5.71 417.0 5.67 418.0 5.63 419.0 5.64 420.0 5.67 421.0 5.71 422.0 5.76 423.0 5.81 424.0 5.86 425.0 5.86 426.0 5.86 427.0 5.86 428.0 5.83 429.0 5.77 430.0 5.71 431.0 5.65 432.0 5.59 433.0 5.52 434.0 5.41 435.0 5.30 436.0 5.19 437.0 5.22 438.0 5.39 439.0 5.57 440.0 5.75 441.0 5.92 442.0 6.09 443.0 6.11 444.0 6.12 445.0 6.02 446.0 5.73 447.0 5.44 448.0 5.16 449.0 5.09 450.0 5.02 451.0 4.96 452.0 4.89 453.0 4.89 454.0 4.97 455.0 5.06 456.0 5.14 457.0 5.23 458.0 5.31 459.0 5.33 460.0 5.34 461.0 5.35 462.0 5.36 463.0 5.23 464.0 5.10 465.0 5.06 466.0 5.38 467.0 5.70 468.0 5.80 469.0 5.79 470.0 5.79 471.0 5.78 472.0 5.81 473.0 5.87 474.0 5.92 475.0 5.87 476.0 5.79 477.0 5.71 478.0 5.63 479.0 5.55 480.0 5.57 481.0 5.66 482.0 5.75 483.0 5.84 484.0 5.94 485.0 6.02 486.0 6.09 487.0 6.15 488.0 6.10 489.0 5.91 490.0 5.73 491.0 5.60 492.0 5.55 493.0 5.50 494.0 5.45 495.0 5.40 496.0 5.40 497.0 5.62 498.0 5.84 499.0 6.07 500.0 6.29 501.0 6.33 502.0 6.25 503.0 6.16 504.0 6.07 505.0 5.97 506.0 5.94 507.0 6.07 508.0 6.19 509.0 6.32 510.0 6.51 511.0 6.71 512.0 6.71 513.0 6.49 514.0 6.26 515.0 6.12 516.0 6.21 517.0 6.30 518.0 6.39 519.0 6.48 520.0 6.56 521.0 6.56 522.0 6.54 523.0 6.53 524.0 6.57 525.0 6.62 526.0 6.66 527.0 6.54 528.0 6.33 529.0 6.12 530.0 5.91 531.0 5.90 532.0 5.90 533.0 5.90 534.0 5.91 535.0 5.96 536.0 6.00 537.0 6.05 538.0 6.01 539.0 5.92 540.0 5.84 541.0 5.76 542.0 5.67 543.0 5.59 544.0 5.57 545.0 5.56 546.0 5.42 547.0 5.07 548.0 4.88 549.0 4.99 550.0 5.11 551.0 5.22 552.0 5.34 553.0 5.46 554.0 5.37 555.0 5.11 556.0 4.86 557.0 4.61 558.0 4.36 559.0 4.12 560.0 4.21 561.0 4.30 562.0 4.39 563.0 4.49 564.0 4.58 565.0 4.66 566.0 4.59 567.0 4.51 568.0 4.44 569.0 4.40 570.0 4.40 571.0 4.41 572.0 4.43 573.0 4.48 574.0 4.53 575.0 4.51 576.0 4.43 577.0 4.36 578.0 4.29 579.0 4.21 580.0 4.14 581.0 4.14 582.0 4.17 583.0 4.19 584.0 4.28 585.0 4.36 586.0 4.45 587.0 4.54 588.0 4.63 589.0 4.67 590.0 4.71 591.0 4.74 592.0 4.78 593.0 4.81 594.0 4.97 595.0 5.19 596.0 5.41 597.0 5.63 598.0 5.85 599.0 5.52 600.0 5.17 601.0 4.82 602.0 4.47 603.0 4.63 604.0 4.85 605.0 5.07 606.0 5.03 607.0 4.91 608.0 4.79 609.0 4.68 610.0 4.58 611.0 4.49 612.0 4.59 613.0 4.91 614.0 5.18 615.0 5.27 616.0 5.37 617.0 5.46 618.0 5.55 619.0 5.58 620.0 5.59 621.0 5.60 622.0 5.53 623.0 5.42 624.0 5.30 625.0 5.18 626.0 5.07 627.0 5.27 628.0 5.84 629.0 6.18 630.0 5.91 631.0 5.65 632.0 5.39 633.0 5.13 634.0 4.86 635.0 4.80 636.0 4.85 637.0 4.89 638.0 4.93 639.0 4.98 640.0 5.13 641.0 5.29 642.0 5.46 643.0 5.62 644.0 5.78 645.0 5.98 646.0 6.30 647.0 6.61 648.0 6.93 649.0 7.25 650.0 7.57 651.0 7.52 652.0 7.22 653.0 6.93 654.0 6.63 655.0 6.34 656.0 6.04 657.0 6.08 658.0 6.12 659.0 6.15 660.0 6.19 661.0 5.97 662.0 5.63 663.0 5.49 664.0 5.46 665.0 5.43 666.0 5.40 667.0 5.37 668.0 5.35 669.0 5.34 670.0 5.34 671.0 6.34 672.0 7.37 673.0 8.40 674.0 8.11 675.0 7.43 676.0 6.76 677.0 6.08 678.0 5.51 679.0 5.71 680.0 5.91 681.0 6.10 682.0 6.29 683.0 6.25 684.0 6.22 685.0 6.18 686.0 6.14 687.0 6.07 688.0 6.00 689.0 5.93 690.0 5.86 691.0 5.80 692.0 5.90 693.0 6.11 694.0 6.31 695.0 6.52 696.0 6.70 697.0 6.70 698.0 6.68 699.0 6.66 700.0 6.36 701.0 6.00 702.0 5.64 703.0 5.66 704.0 5.78 705.0 5.90 706.0 6.02 707.0 6.14 708.0 6.21 709.0 6.17 710.0 6.13 711.0 6.09 712.0 6.03 713.0 5.95 714.0 5.87 715.0 5.79 716.0 5.71 717.0 5.64 718.0 5.59 719.0 5.53 720.0 5.47 721.0 5.75 722.0 6.07 723.0 6.34 724.0 6.21 725.0 6.08 726.0 5.95 727.0 5.82 728.0 5.78 729.0 5.73 730.0 5.69 731.0 5.64 732.0 5.60 733.0 5.55 734.0 5.51 735.0 5.47 736.0 5.53 737.0 5.58 738.0 5.64 739.0 5.70 740.0 5.75 741.0 5.67 742.0 5.56 743.0 5.45 744.0 5.34 745.0 5.24 746.0 5.14 747.0 5.03 748.0 4.93 749.0 4.82 750.0 4.72 751.0 4.61 752.0 4.74 753.0 4.89 754.0 5.03 755.0 5.17 756.0 5.32 757.0 5.29 758.0 5.18 759.0 5.22 760.0 5.34 761.0 5.47 762.0 5.60 763.0 5.70 764.0 5.66 765.0 5.61 766.0 5.57 767.0 5.52 768.0 5.47 769.0 5.29 770.0 5.04 771.0 5.16 772.0 5.74 773.0 6.33 774.0 6.44 775.0 5.74 776.0 5.05 777.0 4.55 778.0 4.54 779.0 4.52 780.0 4.51 781.0 4.61 782.0 5.20 783.0 5.79 784.0 6.39 785.0 6.40 786.0 5.82 787.0 5.23 788.0 4.64 789.0 4.50 790.0 4.65 791.0 4.80 792.0 4.95 793.0 5.10 794.0 5.03 795.0 4.75 796.0 4.71 797.0 4.93 798.0 5.15 799.0 5.36 800.0 5.58 800.0 9.39 799.0 9.78 798.0 9.98 797.0 9.88 796.0 9.78 795.0 9.69 794.0 9.59 793.0 9.48 792.0 9.34 791.0 9.19 790.0 9.12 789.0 9.38 788.0 9.63 787.0 9.89 786.0 9.81 785.0 9.72 784.0 9.72 783.0 9.76 782.0 9.81 781.0 9.86 780.0 10.01 779.0 10.32 778.0 10.56 777.0 10.53 776.0 10.50 775.0 10.47 774.0 10.37 773.0 10.26 772.0 10.15 771.0 10.05 770.0 10.03 769.0 10.01 768.0 10.01 767.0 10.02 766.0 10.14 765.0 10.49 764.0 10.75 763.0 10.61 762.0 10.46 761.0 10.32 760.0 10.17 759.0 10.03 758.0 9.96 757.0 10.07 756.0 10.19 755.0 10.31 754.0 10.42 753.0 10.52 752.0 10.46 751.0 10.41 750.0 10.35 749.0 10.30 748.0 10.24 747.0 10.23 746.0 10.39 745.0 10.55 744.0 10.71 743.0 10.65 742.0 10.21 741.0 9.76 740.0 9.32 739.0 8.88 738.0 8.70 737.0 9.21 736.0 9.72 735.0 10.04 734.0 10.14 733.0 10.31 732.0 10.69 731.0 11.06 730.0 11.08 729.0 10.86 728.0 10.63 727.0 10.40 726.0 10.36 725.0 10.55 724.0 10.74 723.0 10.94 722.0 11.07 721.0 11.09 720.0 11.11 719.0 11.16 718.0 11.22 717.0 11.25 716.0 11.26 715.0 11.28 714.0 11.30 713.0 11.32 712.0 11.23 711.0 11.06 710.0 10.89 709.0 10.75 708.0 10.65 707.0 10.55 706.0 10.49 705.0 10.48 704.0 10.48 703.0 10.47 702.0 10.47 701.0 10.46 700.0 10.48 699.0 10.50 698.0 10.52 697.0 10.54 696.0 10.54 695.0 10.56 694.0 10.59 693.0 10.62 692.0 10.65 691.0 10.58 690.0 10.48 689.0 10.38 688.0 10.37 687.0 10.43 686.0 10.48 685.0 10.53 684.0 10.59 683.0 10.59 682.0 10.39 681.0 10.18 680.0 9.98 679.0 9.99 678.0 10.07 677.0 10.16 676.0 10.25 675.0 10.30 674.0 10.32 673.0 10.34 672.0 10.37 671.0 10.30 670.0 10.12 669.0 9.95 668.0 9.77 667.0 9.88 666.0 10.16 665.0 10.44 664.0 10.56 663.0 10.42 662.0 10.28 661.0 10.29 660.0 10.34 659.0 10.39 658.0 10.45 657.0 10.52 656.0 10.58 655.0 10.65 654.0 10.72 653.0 10.78 652.0 10.76 651.0 10.70 650.0 10.64 649.0 10.58 648.0 10.52 647.0 10.47 646.0 10.46 645.0 10.47 644.0 10.47 643.0 10.48 642.0 10.49 641.0 10.49 640.0 10.26 639.0 10.00 638.0 9.73 637.0 9.47 636.0 9.24 635.0 9.26 634.0 9.28 633.0 9.29 632.0 9.31 631.0 9.35 630.0 9.75 629.0 10.14 628.0 10.23 627.0 9.93 626.0 9.71 625.0 9.92 624.0 10.13 623.0 10.34 622.0 10.24 621.0 9.82 620.0 9.41 619.0 9.14 618.0 9.22 617.0 9.29 616.0 9.32 615.0 9.34 614.0 9.36 613.0 9.34 612.0 9.30 611.0 9.26 610.0 9.23 609.0 9.19 608.0 9.32 607.0 9.50 606.0 9.68 605.0 9.86 604.0 10.04 603.0 10.11 602.0 10.15 601.0 10.19 600.0 10.10 599.0 9.79 598.0 9.49 597.0 9.19 596.0 9.28 595.0 9.58 594.0 9.87 593.0 10.00 592.0 10.02 591.0 10.03 590.0 10.05 589.0 10.06 588.0 9.93 587.0 9.71 586.0 9.52 585.0 9.39 584.0 9.26 583.0 9.13 582.0 9.00 581.0 9.16 580.0 9.37 579.0 9.58 578.0 9.79 577.0 9.72 576.0 9.58 575.0 9.44 574.0 9.36 573.0 9.33 572.0 9.29 571.0 9.27 570.0 9.28 569.0 9.35 568.0 9.44 567.0 9.50 566.0 9.49 565.0 9.49 564.0 9.52 563.0 9.58 562.0 9.64 561.0 9.70 560.0 9.76 559.0 9.81 558.0 9.92 557.0 10.04 556.0 10.16 555.0 10.21 554.0 10.22 553.0 10.24 552.0 10.25 551.0 10.27 550.0 10.28 549.0 10.21 548.0 10.14 547.0 10.07 546.0 10.00 545.0 9.93 544.0 9.86 543.0 9.76 542.0 9.66 541.0 9.56 540.0 9.54 539.0 9.65 538.0 9.75 537.0 9.86 536.0 9.96 535.0 10.08 534.0 10.25 533.0 10.41 532.0 10.57 531.0 10.66 530.0 10.64 529.0 10.61 528.0 10.58 527.0 10.55 526.0 10.52 525.0 10.59 524.0 10.73 523.0 10.87 522.0 11.01 521.0 11.15 520.0 11.28 519.0 11.13 518.0 10.97 517.0 10.81 516.0 10.65 515.0 10.49 514.0 10.35 513.0 10.29 512.0 10.24 511.0 10.18 510.0 10.26 509.0 10.50 508.0 10.73 507.0 10.96 506.0 11.11 505.0 11.10 504.0 11.09 503.0 11.10 502.0 11.10 501.0 11.11 500.0 11.11 499.0 11.09 498.0 11.08 497.0 11.06 496.0 11.02 495.0 10.85 494.0 10.68 493.0 10.50 492.0 10.33 491.0 10.16 490.0 10.02 489.0 10.00 488.0 9.97 487.0 9.94 486.0 9.92 485.0 9.89 484.0 10.06 483.0 10.31 482.0 10.55 481.0 10.79 480.0 11.03 479.0 10.97 478.0 10.83 477.0 10.70 476.0 10.57 475.0 10.43 474.0 10.30 473.0 10.18 472.0 10.07 471.0 10.01 470.0 10.02 469.0 10.04 468.0 10.04 467.0 10.03 466.0 10.04 465.0 10.10 464.0 10.17 463.0 10.25 462.0 10.20 461.0 10.00 460.0 9.79 459.0 9.64 458.0 9.79 457.0 9.94 456.0 10.09 455.0 10.24 454.0 10.39 453.0 10.49 452.0 10.38 451.0 10.27 450.0 10.16 449.0 10.25 448.0 10.39 447.0 10.53 446.0 10.59 445.0 10.64 444.0 10.70 443.0 10.75 442.0 10.84 441.0 10.98 440.0 11.12 439.0 11.25 438.0 11.39 437.0 11.09 436.0 10.75 435.0 10.41 434.0 10.20 433.0 10.44 432.0 10.68 431.0 10.91 430.0 11.15 429.0 11.33 428.0 11.31 427.0 11.30 426.0 11.29 425.0 11.26 424.0 10.87 423.0 10.49 422.0 10.41 421.0 10.41 420.0 10.41 419.0 10.41 418.0 10.62 417.0 10.86 416.0 11.11 415.0 11.05 414.0 10.63 413.0 10.28 412.0 10.31 411.0 10.34 410.0 10.37 409.0 10.40 408.0 10.47 407.0 10.66 406.0 10.84 405.0 11.03 404.0 11.16 403.0 11.17 402.0 11.19 401.0 11.20 400.0 11.25 399.0 11.41 398.0 11.61 397.0 11.67 396.0 11.51 395.0 11.35 394.0 11.19 393.0 11.03 392.0 10.93 391.0 11.22 390.0 11.51 389.0 11.80 388.0 12.09 387.0 12.05 386.0 11.91 385.0 11.77 384.0 11.62 383.0 11.48 382.0 11.62 381.0 12.14 380.0 12.66 379.0 12.47 378.0 12.18 377.0 11.88 376.0 11.63 375.0 11.54 374.0 11.46 373.0 11.37 372.0 11.28 371.0 11.40 370.0 11.58 369.0 11.76 368.0 11.83 367.0 11.73 366.0 11.64 365.0 11.54 364.0 11.44 363.0 11.34 362.0 11.36 361.0 11.40 360.0 11.43 359.0 11.46 358.0 11.49 357.0 11.40 356.0 11.28 355.0 11.17 354.0 11.05 353.0 10.94 352.0 10.83 351.0 10.71 350.0 10.60 349.0 10.49 348.0 10.63 347.0 10.81 346.0 11.00 345.0 11.20 344.0 11.42 343.0 11.35 342.0 11.00 341.0 10.66 340.0 10.46 339.0 10.35 338.0 10.23 337.0 10.12 336.0 10.45 335.0 10.92 334.0 11.17 333.0 11.11 332.0 11.05 331.0 10.99 330.0 10.93 329.0 10.86 328.0 10.93 327.0 11.02 326.0 11.10 325.0 11.07 324.0 11.03 323.0 10.99 322.0 10.96 321.0 10.92 320.0 10.86 319.0 10.70 318.0 10.53 317.0 10.26 316.0 9.99 315.0 9.63 314.0 9.21 313.0 8.79 312.0 8.38 311.0 8.17 310.0 8.31 309.0 9.02 308.0 10.00 307.0 9.91 306.0 9.81 305.0 9.89 304.0 10.33 303.0 10.78 302.0 10.83 301.0 10.57 300.0 10.31 299.0 10.05 298.0 9.87 297.0 9.83 296.0 9.78 295.0 9.74 294.0 9.69 293.0 9.67 292.0 9.71 291.0 9.74 290.0 9.78 289.0 9.81 288.0 9.83 287.0 9.85 286.0 9.87 285.0 9.89 284.0 9.90 283.0 9.88 282.0 9.84 281.0 9.80 280.0 9.77 279.0 9.96 278.0 10.15 277.0 10.35 276.0 10.54 275.0 10.57 274.0 10.56 273.0 10.56 272.0 10.40 271.0 10.22 270.0 10.05 269.0 9.87 268.0 9.70 267.0 9.51 266.0 8.94 265.0 8.38 264.0 8.03 263.0 9.18 262.0 10.24 261.0 10.08 260.0 9.93 259.0 9.77 258.0 9.62 257.0 9.52 256.0 9.45 255.0 9.37 254.0 9.30 253.0 9.32 252.0 9.73 251.0 10.15 250.0 10.09 249.0 9.65 248.0 9.44 247.0 9.67 246.0 9.90 245.0 10.09 244.0 10.21 243.0 10.32 242.0 10.44 241.0 10.55 240.0 10.56 239.0 10.55 238.0 10.51 237.0 10.37 236.0 10.24 235.0 10.28 234.0 10.31 233.0 10.35 232.0 10.38 231.0 10.58 230.0 10.84 229.0 10.99 228.0 10.94 227.0 10.88 226.0 10.83 225.0 10.78 224.0 10.72 223.0 10.90 222.0 11.30 221.0 11.69 220.0 12.09 219.0 12.09 218.0 12.05 217.0 11.93 216.0 11.78 215.0 11.63 214.0 11.51 213.0 11.62 212.0 11.73 211.0 11.84 210.0 11.54 209.0 11.14 208.0 10.74 207.0 10.34 206.0 9.94 205.0 10.02 204.0 10.17 203.0 10.32 202.0 10.47 201.0 10.62 200.0 10.78 199.0 11.00 198.0 11.21 197.0 11.43 196.0 11.62 195.0 11.79 194.0 11.96 193.0 12.13 192.0 12.30 191.0 12.47 190.0 12.57 189.0 12.68 188.0 12.78 187.0 12.88 186.0 12.99 185.0 13.03 184.0 13.02 183.0 13.01 182.0 13.00 181.0 12.99 180.0 13.02 179.0 13.05 178.0 13.08 177.0 13.10 176.0 13.13 175.0 13.04 174.0 12.86 173.0 12.67 172.0 12.65 171.0 12.73 170.0 12.78 169.0 12.69 168.0 12.61 167.0 12.52 166.0 12.44 165.0 12.36 164.0 12.28 163.0 12.20 162.0 12.11 161.0 12.03 160.0 12.10 159.0 12.35 158.0 12.60 157.0 12.85 156.0 12.73 155.0 12.35 154.0 12.20 153.0 12.26 152.0 12.32 151.0 12.38 150.0 12.44 149.0 12.32 148.0 12.09 147.0 11.87 146.0 11.80 145.0 11.72 144.0 11.64 143.0 11.57 142.0 11.56 141.0 11.54 140.0 11.52 139.0 11.51 138.0 11.52 137.0 11.52 136.0 11.52 135.0 11.52 134.0 11.59 133.0 11.69 132.0 11.79 131.0 11.89 130.0 11.93 129.0 11.80 128.0 11.68 127.0 11.55 126.0 11.42 125.0 10.96 124.0 10.01 123.0 9.05 122.0 9.16 121.0 9.69 120.0 10.21 119.0 10.45 118.0 10.54 117.0 10.62 116.0 10.71 115.0 10.68 114.0 10.61 113.0 10.55 112.0 10.48 111.0 10.41 110.0 10.41 109.0 10.47 108.0 10.53 107.0 10.60 106.0 10.67 105.0 10.74 104.0 10.81 103.0 10.84 102.0 10.88 101.0 10.91 100.0 10.88 99.0 10.81 98.0 10.73 97.0 10.66 96.0 10.58 95.0 10.50 94.0 10.43 93.0 10.35 92.0 10.27 91.0 10.20 90.0 10.24 89.0 10.34 88.0 10.45 87.0 10.55 86.0 10.65 85.0 10.72 84.0 10.71 83.0 10.69 82.0 10.68 81.0 10.67 80.0 10.62 79.0 10.54 78.0 10.46 77.0 10.38 76.0 10.29 75.0 10.10 74.0 9.77 73.0 9.43 72.0 9.36 71.0 9.39 70.0 9.45 69.0 9.50 68.0 9.55 67.0 9.60 66.0 9.65 65.0 9.70 64.0 9.74 63.0 9.79 62.0 9.83 61.0 9.94 60.0 10.04 59.0 10.15 58.0 10.25 57.0 10.35 56.0 10.45 55.0 10.43 54.0 10.24 53.0 10.04 52.0 10.09 51.0 10.16 50.0 10.22 49.0 10.28 48.0 10.34 47.0 10.36 46.0 10.34 45.0 10.31 44.0 10.16 43.0 9.78 42.0 9.40 41.0 9.42 40.0 9.44 39.0 9.46 38.0 9.47 37.0 9.49 36.0 9.54 35.0 9.71 34.0 9.88 33.0 10.04 32.0 10.21 31.0 10.27 30.0 10.31 29.0 10.34 28.0 10.26 27.0 10.10 26.0 10.00 25.0 9.98 24.0 9.95 23.0 9.93 22.0 9.91 21.0 9.89 20.0 9.84 19.0 9.78 18.0 9.73 17.0 9.67 16.0 9.61 15.0 9.55 14.0 9.43 13.0 9.32 12.0 9.21 11.0 9.09 10.0 8.98 9.0 9.01 8.0 9.08 7.0 9.15 6.0 9.22 5.0 9.25 4.0 9.28 3.0 9.30 2.0 9.33 1.0 9.36 0.0 9.39ZM38.0 6.20 39.0 6.18 40.0 6.10 41.0 6.01 42.0 5.93 43.0 5.96 44.0 6.00 45.0 6.04 46.0 6.04 47.0 6.03 48.0 6.01 49.0 5.98 50.0 5.94 51.0 5.88 52.0 5.80 53.0 5.73 54.0 5.73 55.0 5.74 56.0 5.69 57.0 5.66 58.0 5.63 59.0 5.65 60.0 5.69 61.0 5.76 62.0 5.83 63.0 5.93 64.0 6.04 64.0 6.10 63.0 6.14 62.0 6.19 61.0 6.26 60.0 6.35 59.0 6.45 58.0 6.52 57.0 6.55 56.0 6.58 55.0 6.63 54.0 6.62 53.0 6.62 52.0 6.69 51.0 6.77 50.0 6.83 49.0 6.87 48.0 6.90 47.0 6.92 46.0 6.93 45.0 6.93 44.0 6.89 43.0 6.70 42.0 6.52 41.0 6.46 40.0 6.40 39.0 6.33 38.0 6.20ZM87.0 6.99 88.0 6.98 89.0 6.96 90.0 6.94 91.0 6.93 92.0 6.98 93.0 7.02 94.0 7.11 95.0 7.16 96.0 7.18 97.0 7.19 98.0 7.21 99.0 7.23 100.0 7.25 101.0 7.25 102.0 7.23 103.0 7.18 104.0 7.14 105.0 7.08 106.0 7.02 107.0 6.96 108.0 6.90 109.0 6.96 110.0 7.06 111.0 7.18 112.0 7.21 113.0 7.17 114.0 7.12 115.0 7.08 116.0 7.02 117.0 6.98 118.0 6.98 119.0 6.99 120.0 6.93 121.0 6.78 122.0 6.62 123.0 6.66 124.0 7.10 125.0 7.48 126.0 7.66 127.0 7.73 128.0 7.79 129.0 7.83 130.0 7.83 131.0 7.78 132.0 7.75 133.0 7.74 134.0 7.72 135.0 7.72 136.0 7.78 137.0 7.92 137.0 7.95 136.0 7.93 135.0 7.97 134.0 8.09 133.0 8.21 132.0 8.33 131.0 8.44 130.0 8.50 129.0 8.49 128.0 8.45 127.0 8.39 126.0 8.32 125.0 8.14 124.0 7.76 123.0 7.33 122.0 7.28 121.0 7.44 120.0 7.59 119.0 7.65 118.0 7.64 117.0 7.64 116.0 7.68 115.0 7.74 114.0 7.78 113.0 7.83 112.0 7.87 111.0 7.84 110.0 7.72 109.0 7.62 108.0 7.56 107.0 7.62 106.0 7.68 105.0 7.74 104.0 7.80 103.0 7.84 102.0 7.89 101.0 7.91 100.0 7.91 99.0 7.89 98.0 7.87 97.0 7.85 96.0 7.84 95.0 7.82 94.0 7.78 93.0 7.68 92.0 7.53 91.0 7.37 90.0 7.27 89.0 7.18 88.0 7.09 87.0 6.99ZM179.0 10.45 180.0 10.55 181.0 10.65 182.0 10.77 183.0 10.89 184.0 10.68 185.0 10.27 186.0 9.91 187.0 9.86 188.0 9.82 189.0 9.79 190.0 9.76 191.0 9.74 192.0 9.67 193.0 9.60 194.0 9.50 195.0 9.35 196.0 9.20 197.0 9.05 198.0 8.93 199.0 8.82 200.0 8.70 201.0 8.61 202.0 8.54 203.0 8.44 204.0 8.28 205.0 8.11 206.0 7.99 207.0 8.19 208.0 8.38 209.0 8.63 210.0 8.90 211.0 9.11 212.0 9.04 213.0 8.94 214.0 8.83 215.0 8.87 216.0 8.95 217.0 9.05 218.0 9.14 219.0 9.19 220.0 9.22 221.0 8.99 222.0 8.76 223.0 8.53 224.0 8.44 225.0 8.49 226.0 8.53 227.0 8.58 228.0 8.62 229.0 8.67 230.0 8.61 231.0 8.48 232.0 8.38 233.0 8.39 234.0 8.44 235.0 8.48 236.0 8.52 237.0 8.67 238.0 8.77 239.0 8.77 240.0 8.73 241.0 8.68 242.0 8.55 243.0 8.43 244.0 8.40 245.0 8.39 246.0 8.33 247.0 8.25 248.0 8.09 249.0 8.25 250.0 8.58 251.0 8.66 252.0 8.40 253.0 8.13 254.0 8.13 254.0 8.19 253.0 8.34 252.0 8.76 251.0 9.18 250.0 9.25 249.0 9.06 248.0 9.00 247.0 9.16 246.0 9.24 245.0 9.30 244.0 9.31 243.0 9.34 242.0 9.46 241.0 9.59 240.0 9.64 239.0 9.68 238.0 9.68 237.0 9.58 236.0 9.43 235.0 9.39 234.0 9.35 233.0 9.30 232.0 9.29 231.0 9.38 230.0 9.51 229.0 9.58 228.0 9.53 227.0 9.49 226.0 9.44 225.0 9.40 224.0 9.35 223.0 9.44 222.0 9.67 221.0 9.90 220.0 10.13 219.0 10.10 218.0 10.04 217.0 9.96 216.0 9.85 215.0 9.78 214.0 9.74 213.0 9.85 212.0 9.95 211.0 10.02 210.0 9.81 209.0 9.53 208.0 9.29 207.0 9.10 206.0 8.90 205.0 9.02 204.0 9.19 203.0 9.35 202.0 9.45 201.0 9.52 200.0 9.61 199.0 9.73 198.0 9.84 197.0 9.96 196.0 10.11 195.0 10.26 194.0 10.41 193.0 10.51 192.0 10.58 191.0 10.65 190.0 10.67 189.0 10.70 188.0 10.73 187.0 10.77 186.0 10.82 185.0 11.18 184.0 11.44 183.0 11.50 182.0 11.22 181.0 10.95 180.0 10.70 179.0 10.45ZM289.0 7.59 290.0 7.54 291.0 7.50 292.0 7.46 293.0 7.40 294.0 7.32 295.0 7.25 296.0 7.24 297.0 7.24 298.0 7.22 299.0 7.25 300.0 7.38 301.0 7.56 302.0 7.74 303.0 7.79 304.0 7.68 305.0 7.78 306.0 8.03 307.0 8.36 308.0 8.69 309.0 8.46 310.0 7.89 311.0 7.76 312.0 7.81 312.0 7.86 311.0 7.76 310.0 7.89 309.0 8.51 308.0 9.34 307.0 9.14 306.0 8.82 305.0 8.57 304.0 8.47 303.0 8.58 302.0 8.53 301.0 8.35 300.0 8.17 299.0 8.04 298.0 8.01 297.0 8.03 296.0 8.03 295.0 8.04 294.0 7.98 293.0 7.92 292.0 7.85 291.0 7.76 290.0 7.68 289.0 7.59ZM379.0 10.32 380.0 10.39 381.0 9.97 382.0 9.55 383.0 9.41 384.0 9.49 385.0 9.65 386.0 9.88 387.0 10.11 388.0 10.24 389.0 9.98 390.0 9.71 391.0 9.45 392.0 9.18 393.0 9.18 394.0 9.25 395.0 9.31 396.0 9.37 397.0 9.42 398.0 9.31 399.0 9.12 400.0 9.05 401.0 9.13 402.0 9.24 403.0 9.34 404.0 9.45 405.0 9.40 406.0 9.29 406.0 9.30 405.0 9.55 404.0 9.75 403.0 9.79 402.0 9.83 401.0 9.87 400.0 9.93 399.0 10.00 398.0 10.20 397.0 10.30 396.0 10.26 395.0 10.19 394.0 10.13 393.0 10.07 392.0 10.07 391.0 10.33 390.0 10.60 389.0 10.86 388.0 11.13 387.0 10.99 386.0 10.76 385.0 10.54 384.0 10.23 383.0 10.00 382.0 10.00 381.0 10.26 380.0 10.53 379.0 10.32ZM442.0 9.35 443.0 9.23 444.0 9.14 445.0 9.01 446.0 8.82 447.0 8.63 448.0 8.38 449.0 8.27 450.0 8.19 451.0 8.24 452.0 8.30 453.0 8.37 454.0 8.33 455.0 8.25 456.0 8.18 457.0 8.10 458.0 8.02 459.0 7.93 460.0 8.03 461.0 8.18 462.0 8.32 463.0 8.31 464.0 8.22 465.0 8.16 466.0 8.22 467.0 8.31 468.0 8.35 469.0 8.34 470.0 8.33 471.0 8.32 472.0 8.39 473.0 8.54 474.0 8.70 475.0 8.83 476.0 8.96 477.0 9.08 477.0 9.17 476.0 9.16 475.0 9.16 474.0 9.14 473.0 9.11 472.0 9.07 471.0 9.03 470.0 9.04 469.0 9.05 468.0 9.06 467.0 9.02 466.0 8.93 465.0 8.87 464.0 8.93 463.0 9.03 462.0 9.03 461.0 8.89 460.0 8.74 459.0 8.64 458.0 8.74 457.0 8.81 456.0 8.89 455.0 8.96 454.0 9.04 453.0 9.08 452.0 9.01 451.0 8.95 450.0 8.90 449.0 8.98 448.0 9.10 447.0 9.22 446.0 9.30 445.0 9.36 444.0 9.37 443.0 9.35 442.0 9.35ZM522.0 8.24 523.0 8.12 524.0 8.03 525.0 7.94 526.0 7.88 527.0 7.76 528.0 7.57 529.0 7.45 530.0 7.33 531.0 7.34 532.0 7.31 533.0 7.25 534.0 7.19 535.0 7.16 536.0 7.14 537.0 7.13 538.0 7.06 539.0 6.97 540.0 6.88 541.0 6.83 542.0 6.82 543.0 6.81 544.0 6.83 545.0 6.85 546.0 6.79 547.0 6.60 548.0 6.51 549.0 6.61 550.0 6.71 551.0 6.77 552.0 6.84 553.0 6.91 554.0 6.84 555.0 6.68 556.0 6.51 557.0 6.31 558.0 6.10 559.0 5.92 560.0 5.95 561.0 5.99 562.0 6.02 563.0 6.06 564.0 6.09 565.0 6.13 566.0 6.08 567.0 6.06 568.0 6.06 569.0 6.05 570.0 6.09 571.0 6.15 572.0 6.24 572.0 6.32 571.0 6.36 570.0 6.42 569.0 6.50 568.0 6.62 567.0 6.75 566.0 6.82 565.0 6.86 564.0 6.82 563.0 6.79 562.0 6.75 561.0 6.72 560.0 6.68 559.0 6.65 558.0 6.84 557.0 7.04 556.0 7.24 555.0 7.41 554.0 7.58 553.0 7.64 552.0 7.57 551.0 7.51 550.0 7.44 549.0 7.34 548.0 7.24 547.0 7.34 546.0 7.53 545.0 7.59 544.0 7.57 543.0 7.54 542.0 7.55 541.0 7.57 540.0 7.61 539.0 7.70 538.0 7.80 537.0 7.86 536.0 7.87 535.0 7.89 534.0 7.93 533.0 7.98 532.0 8.04 531.0 8.08 530.0 8.07 529.0 8.19 528.0 8.31 527.0 8.37 526.0 8.37 525.0 8.31 524.0 8.27 523.0 8.24 522.0 8.24ZM642.0 8.44 643.0 8.41 644.0 8.38 645.0 8.36 646.0 8.39 647.0 8.42 648.0 8.49 649.0 8.66 650.0 8.82 651.0 8.83 652.0 8.75 653.0 8.64 654.0 8.48 655.0 8.32 656.0 8.17 657.0 8.14 658.0 8.12 659.0 8.10 660.0 8.08 661.0 7.96 662.0 7.82 663.0 7.84 664.0 7.91 665.0 7.83 666.0 7.65 667.0 7.48 668.0 7.40 669.0 7.50 670.0 7.60 671.0 8.12 672.0 8.58 673.0 9.12 674.0 8.87 675.0 8.56 676.0 8.26 677.0 7.93 678.0 7.65 679.0 7.68 680.0 7.75 681.0 7.95 682.0 8.15 683.0 8.26 684.0 8.24 685.0 8.19 686.0 8.14 687.0 8.08 688.0 8.02 689.0 8.00 690.0 8.03 691.0 8.06 692.0 8.14 693.0 8.21 694.0 8.28 695.0 8.35 696.0 8.41 697.0 8.41 698.0 8.39 699.0 8.37 700.0 8.24 701.0 8.08 702.0 7.93 703.0 7.94 704.0 8.05 705.0 8.19 706.0 8.34 707.0 8.53 708.0 8.71 709.0 8.85 709.0 8.93 708.0 8.98 707.0 8.99 706.0 9.00 705.0 9.04 704.0 9.08 703.0 9.08 702.0 9.07 701.0 9.22 700.0 9.38 699.0 9.51 698.0 9.53 697.0 9.55 696.0 9.55 695.0 9.49 694.0 9.42 693.0 9.35 692.0 9.29 691.0 9.21 690.0 9.17 689.0 9.14 688.0 9.17 687.0 9.22 686.0 9.28 685.0 9.33 684.0 9.38 683.0 9.40 682.0 9.29 681.0 9.09 680.0 8.89 679.0 8.82 678.0 8.79 677.0 9.07 676.0 9.40 675.0 9.70 674.0 9.97 673.0 9.99 672.0 9.72 671.0 9.26 670.0 8.75 669.0 8.65 668.0 8.55 667.0 8.62 666.0 8.80 665.0 8.97 664.0 9.06 663.0 8.99 662.0 8.96 661.0 9.10 660.0 9.22 659.0 9.24 658.0 9.26 657.0 9.28 656.0 9.31 655.0 9.47 654.0 9.63 653.0 9.78 652.0 9.89 651.0 9.97 650.0 9.96 649.0 9.80 648.0 9.63 647.0 9.38 646.0 9.15 645.0 8.93 644.0 8.76 643.0 8.60 642.0 8.44Z"/><path d="M560.4 9.26 566.8 9.94 578.7 12.16 565.9 9.06ZM616.5 5.87 622.1 5.08 632.5 2.37 621.3 6.07ZM386.3 11.41 394.2 12.36 408.8 15.05 393.1 11.21ZM514.8 9.85 523.2 10.83 538.8 12.61 522.0 9.65ZM441.7 6.42 449.7 5.52 464.5 4.07 448.5 6.62ZM21.1 4.56 33.0 3.29 55.2 1.35 31.3 4.76ZM630.4 9.25 641.8 10.29 662.8 12.01 640.1 9.05ZM425.8 10.76 439.5 11.47 464.9 13.42 437.6 10.56ZM725.9 10.05 737.4 10.85 758.6 13.12 735.8 9.85ZM434.8 3.78 434.4 4.01 434.0 3.97 434.1 3.51 434.5 3.52ZM557.3 3.84 557.1 4.40 556.3 4.29 555.8 3.84 556.3 3.22 557.2 3.28ZM185.4 14.59 185.2 14.83 184.9 14.77 184.9 14.45 185.2 14.41ZM275.2 4.02 274.9 4.59 274.3 4.60 273.9 4.20 273.7 3.75 274.3 3.22 274.8 3.49ZM352.7 4.57 352.3 5.18 351.6 4.88 351.5 4.23 352.3 3.98ZM13.9 13.02 13.9 13.32 13.6 13.29 13.4 13.15 13.4 12.92 13.6 12.77 13.8 12.79ZM594.1 2.00 594.0 2.26 593.7 2.33 593.6 2.16 593.5 1.82 593.7 1.70 594.1 1.76ZM386.0 15.00 385.6 15.99 384.7 15.36 384.8 14.69 385.5 14.21ZM487.0 4.06 486.9 4.55 486.5 4.48 486.2 4.20 486.1 3.80 486.6 3.49 486.9 3.75ZM188.4 2.41 188.2 2.67 187.9 2.68 187.7 2.41 187.9 2.12 188.2 2.07ZM162.1 2.20 161.9 2.59 161.5 2.66 161.2 2.35 161.4 2.07 161.5 1.85 161.8 1.92ZM734.6 12.87 734.4 13.36 733.8 13.62 733.4 12.87 733.5 12.40 734.4 12.35Z"/></svg>
