<svg xmlns="http://www.w3.org/2000/svg" viewBox="0 0 150 48" preserveAspectRatio="none"><path fill-opacity="0.30" d="M73.8 17.8Q73.6 18.4 74.1 18.7Q74.5 19.1 74.7 19.7Q74.9 20.3 73.8 20.7Q72.6 21.0 71.6 20.9Q70.5 20.8 69.9 20.9Q69.4 21.0 68.7 21.3Q68.0 21.6 67.2 21.6Q66.4 21.7 65.4 21.7Q64.5 21.6 64.0 21.2Q63.5 20.8 64.2 20.1Q64.9 19.5 65.6 19.1Q66.4 18.7 66.6 18.3Q66.8 17.8 67.5 17.4Q68.1 17.0 68.9 17.1Q69.7 17.2 70.4 17.2Q71.0 17.1 72.0 16.9Q73.0 16.7 73.5 17.0Q74.0 17.3 73.8 17.8Z"/><path fill-opacity="0.26" d="M71.5 29.7Q70.0 29.3 71.8 30.6Q73.7 31.9 74.9 33.4Q76.2 35.0 73.9 34.3Q71.7 33.7 69.0 32.1Q66.3 30.4 65.0 29.3Q63.6 28.3 62.9 27.7Q62.1 27.0 61.4 26.5Q60.6 26.0 59.2 25.2Q57.7 24.3 56.3 23.2Q54.8 22.2 54.5 21.4Q54.3 20.7 55.4 20.7Q56.6 20.7 58.8 21.5Q61.0 22.3 63.0 23.6Q65.1 24.9 66.2 25.6Q67.3 26.4 69.3 27.0Q71.4 27.6 73.4 28.7Q75.4 29.7 74.2 29.9Q73.0 30.0 71.5 29.7Z"/><path fill-opacity="0.32" d="M80.6 12.6Q80.8 13.6 79.6 14.1Q78.5 14.6 77.3 14.9Q76.1 15.1 75.1 15.2Q74.1 15.4 73.0 14.8Q71.9 14.2 71.2 13.8Q70.5 13.4 68.6 14.0Q66.8 14.5 63.8 14.2Q60.7 13.8 60.0 12.4Q59.3 11.0 61.0 10.0Q62.7 9.1 64.4 8.8Q66.2 8.6 67.7 8.8Q69.1 9.0 69.9 9.2Q70.7 9.5 71.1 8.6Q71.6 7.7 73.3 6.8Q74.9 5.9 76.6 6.6Q78.2 7.2 78.7 8.4Q79.2 9.6 79.8 10.6Q80.3 11.6 80.6 12.6Z"/><path fill-opacity="0.29" d="M111.7 23.6Q114.3 24.3 116.1 25.3Q117.8 26.4 114.7 27.2Q111.6 27.9 106.7 27.6Q101.7 27.3 99.4 27.0Q97.0 26.6 95.6 26.9Q94.1 27.1 92.1 27.2Q90.1 27.4 87.7 27.3Q85.4 27.2 82.3 26.9Q79.2 26.6 77.0 25.8Q74.9 25.0 75.8 24.1Q76.7 23.1 79.6 22.5Q82.4 21.9 85.6 21.7Q88.8 21.6 91.3 21.8Q93.9 22.0 95.6 22.0Q97.2 22.1 99.4 21.9Q101.6 21.7 103.8 21.9Q106.0 22.0 107.5 22.5Q109.1 23.0 111.7 23.6Z"/><path fill-opacity="0.24" d="M40.8 36.1Q40.6 36.8 39.6 37.0Q38.7 37.3 38.8 38.1Q39.0 39.0 38.7 40.3Q38.5 41.7 36.6 41.8Q34.8 41.9 33.1 41.1Q31.3 40.3 29.8 39.6Q28.2 38.9 27.6 37.8Q26.9 36.8 28.0 36.0Q29.0 35.1 29.3 34.6Q29.5 34.2 28.7 33.2Q27.9 32.3 28.4 31.7Q28.9 31.0 30.1 30.8Q31.3 30.6 32.6 29.8Q33.9 29.1 36.0 29.1Q38.1 29.1 39.2 30.4Q40.3 31.8 40.2 33.0Q40.1 34.1 40.6 34.8Q41.0 35.5 40.8 36.1Z"/><path fill-opacity="0.31" d="M52.3 18.6Q53.5 19.4 53.4 20.6Q53.3 21.8 52.5 22.9Q51.7 24.1 50.2 24.6Q48.7 25.2 47.1 24.8Q45.5 24.4 44.6 24.2Q43.8 24.0 42.7 24.6Q41.5 25.2 40.1 25.3Q38.7 25.4 37.9 24.7Q37.1 23.9 36.3 23.1Q35.5 22.2 34.9 21.1Q34.4 19.9 35.5 18.9Q36.7 17.9 38.4 17.6Q40.2 17.3 41.2 17.0Q42.3 16.6 43.3 16.4Q44.4 16.1 45.3 16.6Q46.2 17.0 47.0 17.3Q47.9 17.6 49.5 17.7Q51.1 17.8 52.3 18.6Z"/><path fill-opacity="0.33" d="M58.3 15.3Q58.3 16.6 57.9 17.7Q57.5 18.9 57.2 19.9Q56.8 20.9 55.8 21.7Q54.7 22.4 53.3 22.4Q51.8 22.3 50.9 22.2Q50.1 22.0 49.0 23.1Q47.9 24.2 45.3 25.6Q42.7 27.1 40.5 26.7Q38.3 26.3 39.2 24.2Q40.1 22.1 42.7 20.7Q45.2 19.4 46.0 18.9Q46.7 18.4 46.2 17.3Q45.7 16.3 46.3 15.2Q46.9 14.1 48.3 13.9Q49.6 13.7 51.0 13.5Q52.3 13.4 54.0 13.1Q55.7 12.8 57.0 13.4Q58.3 14.1 58.3 15.3Z"/><path fill-opacity="0.27" d="M21.1 22.8Q20.9 23.2 21.9 24.1Q22.8 25.0 22.9 26.0Q23.0 26.9 21.1 26.7Q19.2 26.4 17.3 25.6Q15.4 24.7 14.0 24.3Q12.5 23.9 10.6 23.5Q8.7 23.0 7.8 22.1Q6.8 21.3 7.3 20.7Q7.7 20.1 8.0 19.6Q8.3 19.2 8.2 18.7Q8.1 18.1 8.5 17.6Q8.8 17.0 9.8 16.7Q10.8 16.4 12.6 16.5Q14.3 16.7 16.1 17.4Q17.9 18.1 19.2 18.9Q20.5 19.8 21.1 20.5Q21.7 21.3 21.5 21.8Q21.2 22.4 21.1 22.8Z"/><path fill-opacity="0.20" d="M99.7 28.5Q100.5 28.6 102.1 28.8Q103.8 28.9 104.1 29.6Q104.3 30.3 102.4 31.1Q100.4 31.8 98.2 32.4Q95.9 32.9 93.9 33.2Q91.9 33.5 90.7 33.3Q89.5 33.0 89.3 32.6Q89.1 32.1 88.3 32.1Q87.4 32.1 85.8 32.2Q84.2 32.2 83.6 31.8Q82.9 31.5 83.1 30.8Q83.3 30.2 84.4 29.3Q85.5 28.5 87.8 27.9Q90.1 27.3 92.2 27.3Q94.3 27.3 95.4 27.5Q96.5 27.6 97.4 27.7Q98.2 27.8 98.6 28.1Q99.0 28.3 99.7 28.5Z"/><path fill-opacity="0.22" d="M74.1 27.3Q74.1 27.7 74.4 28.1Q74.7 28.4 74.6 29.0Q74.5 29.5 73.6 30.3Q72.7 31.1 70.1 31.8Q67.5 32.5 65.0 32.5Q62.4 32.5 61.2 32.3Q60.0 32.0 58.3 32.2Q56.6 32.5 54.7 32.6Q52.8 32.7 52.2 32.3Q51.5 32.0 51.0 31.6Q50.4 31.1 51.0 30.4Q51.6 29.7 54.3 29.1Q57.1 28.4 59.6 28.2Q62.0 27.9 63.8 27.3Q65.6 26.8 68.3 26.1Q70.9 25.4 72.6 25.6Q74.3 25.7 74.1 26.3Q74.0 26.9 74.1 27.3Z"/><path fill-opacity="0.25" d="M76.1 35.0Q78.5 35.2 80.3 35.7Q82.2 36.3 81.8 37.1Q81.5 37.9 78.9 38.5Q76.3 39.1 73.0 39.1Q69.7 39.2 67.4 38.8Q65.2 38.3 64.1 38.0Q63.1 37.6 61.9 37.5Q60.6 37.4 58.8 37.3Q57.0 37.2 55.8 36.8Q54.6 36.5 54.4 35.9Q54.1 35.4 54.3 34.7Q54.6 34.0 56.1 33.3Q57.6 32.5 60.6 32.2Q63.6 31.8 66.3 32.2Q69.0 32.5 69.9 33.2Q70.9 33.9 71.0 34.3Q71.2 34.7 72.4 34.8Q73.6 34.8 76.1 35.0Z"/><path fill-opacity="0.17" d="M110.5 26.0Q110.0 27.0 109.1 27.7Q108.3 28.3 107.5 29.0Q106.8 29.7 105.3 29.5Q103.8 29.3 102.5 28.4Q101.3 27.5 100.3 27.9Q99.3 28.2 96.5 29.0Q93.7 29.8 91.4 28.8Q89.1 27.8 90.1 26.2Q91.1 24.7 92.5 23.9Q93.9 23.1 94.3 22.4Q94.7 21.6 95.8 21.4Q96.8 21.1 98.0 21.2Q99.2 21.4 100.1 20.8Q101.0 20.3 102.7 19.8Q104.4 19.3 106.0 20.0Q107.7 20.6 108.8 21.7Q109.9 22.8 110.4 23.9Q111.0 25.0 110.5 26.0Z"/><path fill-opacity="0.32" d="M84.6 24.1Q84.1 24.9 83.3 25.5Q82.5 26.1 82.0 26.6Q81.6 27.1 80.4 27.5Q79.2 27.9 78.2 27.9Q77.2 28.0 76.6 28.3Q76.0 28.7 74.9 29.3Q73.8 29.9 72.6 30.0Q71.5 30.2 70.5 30.1Q69.5 30.1 68.4 29.9Q67.3 29.7 67.8 29.1Q68.3 28.4 70.2 27.7Q72.0 27.1 73.0 26.8Q74.1 26.5 74.6 26.2Q75.2 25.9 75.9 25.7Q76.6 25.6 77.4 25.3Q78.2 25.1 80.0 24.3Q81.8 23.6 83.4 23.5Q85.0 23.4 84.6 24.1Z"/><path fill-opacity="0.22" d="M104.0 21.3Q104.7 22.4 104.9 23.8Q105.1 25.1 104.2 26.2Q103.3 27.2 101.1 26.5Q98.9 25.9 97.3 24.3Q95.6 22.7 94.6 22.1Q93.5 21.5 91.9 21.1Q90.3 20.7 89.9 19.6Q89.4 18.6 90.0 17.9Q90.5 17.1 89.5 16.0Q88.5 14.8 87.6 13.1Q86.8 11.3 88.3 10.9Q89.8 10.4 91.9 11.1Q93.9 11.8 95.5 12.4Q97.1 12.9 98.4 13.8Q99.7 14.6 100.2 15.7Q100.7 16.8 101.1 17.6Q101.5 18.4 102.4 19.2Q103.4 20.1 104.0 21.3Z"/><path fill-opacity="0.22" d="M56.7 18.6Q58.3 18.2 58.7 18.5Q59.1 18.8 58.3 19.5Q57.5 20.2 56.3 21.1Q55.1 21.9 53.3 22.6Q51.5 23.4 50.1 23.7Q48.6 24.0 47.7 24.2Q46.8 24.4 45.3 25.1Q43.7 25.7 41.7 26.4Q39.7 27.1 38.5 27.2Q37.2 27.2 37.7 26.5Q38.2 25.8 40.4 24.7Q42.7 23.6 44.4 22.9Q46.1 22.3 46.6 21.7Q47.1 21.1 48.6 20.0Q50.1 18.9 51.8 18.5Q53.5 18.0 53.8 18.4Q54.0 18.9 54.6 18.9Q55.2 19.0 56.7 18.6Z"/><path fill-opacity="0.25" d="M93.5 16.9Q93.7 18.0 92.0 19.0Q90.3 20.0 89.1 20.5Q87.8 21.1 87.7 21.9Q87.6 22.8 86.8 23.9Q85.9 25.0 84.1 25.6Q82.3 26.2 80.1 26.7Q77.9 27.1 75.7 26.9Q73.4 26.6 73.1 25.2Q72.7 23.8 73.7 22.5Q74.8 21.2 75.4 20.4Q76.0 19.5 76.7 18.8Q77.4 18.1 78.4 17.6Q79.4 17.1 80.1 16.1Q80.8 15.0 82.5 13.6Q84.2 12.2 86.5 12.1Q88.8 12.0 90.1 13.0Q91.4 14.0 92.4 14.9Q93.4 15.8 93.5 16.9Z"/><path fill-opacity="0.34" d="M85.2 28.0Q84.3 28.6 84.2 28.9Q84.2 29.2 85.1 29.8Q86.0 30.4 86.0 31.4Q86.1 32.4 84.7 33.0Q83.3 33.6 81.6 33.7Q79.8 33.8 78.5 33.5Q77.1 33.1 77.0 32.2Q76.8 31.3 77.8 30.5Q78.7 29.6 78.5 29.5Q78.2 29.3 76.5 29.0Q74.8 28.6 74.2 27.8Q73.7 26.9 74.9 26.4Q76.2 25.8 77.7 25.6Q79.2 25.4 80.5 25.2Q81.8 25.1 83.2 25.1Q84.5 25.1 85.4 25.5Q86.3 25.9 86.2 26.7Q86.1 27.4 85.2 28.0Z"/><path fill-opacity="0.32" d="M97.8 28.3Q98.3 28.7 97.8 29.4Q97.2 30.1 97.0 30.6Q96.9 31.2 96.6 31.9Q96.4 32.7 95.2 33.2Q94.0 33.8 92.9 33.6Q91.7 33.5 91.4 33.0Q91.0 32.5 90.7 32.5Q90.3 32.6 88.9 33.3Q87.4 33.9 85.8 34.2Q84.2 34.4 84.1 33.8Q83.9 33.1 84.9 32.3Q85.9 31.5 86.8 30.9Q87.7 30.3 88.8 29.8Q89.8 29.4 90.7 29.5Q91.7 29.6 92.0 29.9Q92.4 30.1 93.3 29.6Q94.1 29.1 95.7 28.5Q97.3 27.9 97.8 28.3Z"/><path fill-opacity="0.28" d="M62.2 33.5Q62.5 33.8 62.8 34.2Q63.1 34.5 62.9 34.9Q62.8 35.4 62.2 35.8Q61.6 36.2 60.5 36.3Q59.4 36.4 58.6 36.0Q57.7 35.7 57.1 35.6Q56.6 35.4 55.4 35.6Q54.2 35.7 53.3 35.5Q52.3 35.2 52.4 34.8Q52.5 34.3 52.9 33.9Q53.3 33.5 53.8 33.2Q54.4 32.9 55.3 32.8Q56.2 32.7 56.9 32.5Q57.5 32.4 58.4 31.9Q59.2 31.4 60.5 31.4Q61.7 31.3 62.0 31.8Q62.4 32.4 62.1 32.8Q61.9 33.3 62.2 33.5Z"/><path fill-opacity="0.30" d="M16.1 28.0Q15.9 29.6 14.4 30.8Q13.0 31.9 12.6 32.2Q12.3 32.5 13.5 33.6Q14.6 34.6 14.9 36.4Q15.3 38.1 14.1 38.8Q12.9 39.5 11.5 39.0Q10.2 38.5 9.3 37.9Q8.3 37.4 7.4 37.0Q6.5 36.6 5.8 35.8Q5.1 35.1 5.3 34.0Q5.5 33.0 6.3 32.3Q7.0 31.5 7.4 31.0Q7.8 30.5 7.8 29.5Q7.8 28.5 8.4 27.4Q9.0 26.3 10.1 25.7Q11.3 25.1 12.7 25.1Q14.0 25.0 15.2 25.8Q16.3 26.5 16.1 28.0Z"/><path fill-opacity="0.31" d="M70.4 35.9Q70.3 36.8 70.5 37.9Q70.7 39.0 69.2 39.3Q67.8 39.7 65.1 39.0Q62.5 38.3 60.2 37.8Q57.9 37.3 55.4 36.4Q52.9 35.4 52.1 33.9Q51.2 32.4 51.4 31.6Q51.6 30.9 48.5 29.5Q45.4 28.2 42.5 26.2Q39.5 24.1 41.4 23.7Q43.2 23.4 45.9 23.9Q48.7 24.5 50.4 24.4Q52.1 24.3 54.5 25.0Q57.0 25.7 58.9 27.2Q60.7 28.7 62.3 29.6Q63.8 30.5 66.2 31.6Q68.6 32.7 69.5 33.9Q70.5 35.0 70.4 35.9Z"/><path fill-opacity="0.33" d="M84.0 26.6Q86.5 26.4 86.2 27.3Q86.0 28.2 83.7 29.1Q81.5 30.0 79.8 30.5Q78.0 31.0 77.0 31.4Q76.0 31.7 74.9 32.4Q73.8 33.1 71.9 34.0Q69.9 34.8 68.2 34.9Q66.5 35.0 66.3 34.2Q66.1 33.4 66.1 32.8Q66.1 32.1 65.9 31.6Q65.8 31.0 66.9 30.3Q68.0 29.6 69.1 29.1Q70.3 28.5 71.0 27.6Q71.7 26.7 73.4 25.8Q75.2 24.9 76.5 25.4Q77.8 25.9 77.9 26.7Q78.0 27.5 79.7 27.1Q81.4 26.8 84.0 26.6Z"/><path fill-opacity="0.20" d="M81.7 17.4Q82.5 17.8 82.4 18.5Q82.4 19.3 81.1 19.6Q79.8 20.0 78.7 19.9Q77.6 19.8 77.1 19.9Q76.7 20.1 76.2 20.4Q75.6 20.8 75.0 20.7Q74.4 20.7 73.9 20.5Q73.3 20.2 72.3 20.2Q71.3 20.1 70.2 19.6Q69.1 19.2 69.4 18.4Q69.7 17.7 71.0 17.4Q72.4 17.0 73.5 17.1Q74.5 17.1 75.0 17.0Q75.5 17.0 75.9 16.7Q76.4 16.4 77.1 16.3Q77.8 16.2 78.5 16.3Q79.2 16.4 80.1 16.7Q80.9 16.9 81.7 17.4Z"/><path fill-opacity="0.18" d="M86.6 27.7Q86.1 28.7 84.9 29.4Q83.7 30.1 82.3 30.6Q80.9 31.1 78.5 30.9Q76.1 30.7 74.0 30.0Q72.0 29.3 70.5 29.2Q69.0 29.0 66.3 29.2Q63.6 29.3 60.2 28.7Q56.9 28.1 55.0 26.8Q53.0 25.6 53.0 24.4Q53.0 23.2 55.3 22.6Q57.6 22.1 60.9 22.4Q64.2 22.8 66.0 23.1Q67.9 23.4 68.9 22.9Q69.9 22.5 72.0 22.2Q74.1 21.9 76.7 22.3Q79.3 22.7 81.8 23.6Q84.3 24.5 85.8 25.6Q87.2 26.7 86.6 27.7Z"/><path fill-opacity="0.27" d="M85.0 23.2Q85.1 23.5 85.7 24.2Q86.4 24.9 86.1 25.4Q85.8 26.0 84.7 25.8Q83.5 25.6 82.5 25.4Q81.4 25.2 80.3 25.0Q79.2 24.8 78.3 24.2Q77.5 23.6 77.4 23.0Q77.3 22.4 77.2 22.0Q77.2 21.6 77.3 21.3Q77.5 21.0 77.9 20.8Q78.3 20.7 78.1 20.1Q77.9 19.5 78.1 18.6Q78.3 17.6 79.7 17.8Q81.1 18.0 82.1 19.0Q83.2 20.0 83.6 20.6Q84.0 21.3 84.4 21.7Q84.9 22.1 84.9 22.5Q84.9 22.8 85.0 23.2Z"/><path fill-opacity="0.23" d="M144.5 18.5Q145.6 19.2 145.3 20.1Q144.9 21.0 143.1 21.6Q141.3 22.3 138.8 22.4Q136.4 22.5 135.0 22.8Q133.6 23.0 131.8 23.7Q130.1 24.3 128.1 24.2Q126.1 24.1 125.1 23.5Q124.0 22.8 121.9 22.5Q119.7 22.2 118.1 21.5Q116.4 20.8 119.0 19.9Q121.5 19.1 124.2 18.9Q127.0 18.7 126.8 17.8Q126.6 17.0 127.8 15.7Q129.0 14.5 131.4 14.8Q133.9 15.2 134.9 16.1Q135.9 17.1 137.3 17.2Q138.8 17.4 141.1 17.6Q143.4 17.8 144.5 18.5Z"/><path fill-opacity="0.26" d="M70.8 25.9Q72.0 26.5 72.9 27.6Q73.8 28.6 72.6 29.3Q71.4 29.9 69.3 29.6Q67.2 29.3 66.0 28.8Q64.8 28.2 64.0 28.2Q63.3 28.2 62.4 28.1Q61.6 28.1 60.8 27.8Q60.0 27.5 58.8 27.1Q57.6 26.7 56.1 25.9Q54.5 25.1 54.4 24.0Q54.3 23.0 56.2 22.7Q58.2 22.4 60.1 22.9Q62.1 23.5 62.9 23.6Q63.8 23.8 64.6 23.3Q65.5 22.9 66.7 22.9Q67.9 22.9 68.4 23.5Q68.9 24.1 69.3 24.7Q69.6 25.2 70.8 25.9Z"/><path fill-opacity="0.19" d="M67.5 33.6Q68.3 34.5 68.8 36.0Q69.3 37.5 68.0 38.1Q66.6 38.7 65.3 38.1Q63.9 37.6 63.3 38.1Q62.6 38.7 61.6 39.3Q60.5 39.9 59.7 39.2Q58.9 38.6 58.4 37.7Q57.9 36.8 57.3 35.9Q56.8 35.1 57.1 34.0Q57.4 33.0 57.9 32.2Q58.4 31.4 58.4 30.1Q58.4 28.8 59.1 27.7Q59.8 26.6 61.1 27.2Q62.3 27.8 63.1 28.6Q63.9 29.3 64.8 29.2Q65.8 29.2 66.4 29.9Q67.0 30.6 66.9 31.7Q66.8 32.7 67.5 33.6Z"/><path fill-opacity="0.22" d="M110.7 23.6Q109.9 24.4 109.6 25.0Q109.4 25.6 108.9 26.1Q108.4 26.7 107.7 27.1Q106.9 27.6 106.0 28.6Q105.0 29.6 103.1 29.9Q101.3 30.1 100.7 28.5Q100.0 26.9 100.5 25.8Q101.0 24.7 99.2 24.4Q97.3 24.1 95.4 23.0Q93.4 22.0 95.2 21.3Q96.9 20.7 99.1 21.1Q101.3 21.4 101.7 20.8Q102.0 20.2 102.8 19.2Q103.5 18.2 105.0 18.3Q106.5 18.3 107.9 18.8Q109.3 19.3 110.5 20.1Q111.7 20.8 111.6 21.9Q111.6 22.9 110.7 23.6Z"/><path fill-opacity="0.22" d="M82.5 30.2Q82.6 31.1 82.2 31.9Q81.9 32.7 80.9 33.3Q79.9 33.9 78.7 34.4Q77.6 34.8 76.3 35.4Q75.1 36.0 73.2 36.4Q71.4 36.9 69.6 36.5Q67.8 36.0 67.0 35.1Q66.1 34.1 65.4 33.3Q64.8 32.5 64.0 31.6Q63.2 30.8 63.7 29.9Q64.1 29.0 65.8 28.5Q67.5 28.1 68.7 27.8Q69.9 27.5 70.9 26.8Q71.9 26.0 73.7 25.4Q75.6 24.9 77.5 25.2Q79.4 25.6 80.4 26.5Q81.5 27.4 81.9 28.4Q82.3 29.3 82.5 30.2Z"/><path fill-opacity="0.17" d="M108.8 22.1Q108.3 22.8 108.0 23.3Q107.7 23.8 107.0 24.1Q106.4 24.4 105.9 24.6Q105.3 24.9 104.8 25.5Q104.3 26.2 103.2 26.5Q102.2 26.9 101.0 26.7Q99.9 26.4 98.9 26.0Q97.9 25.5 97.3 24.8Q96.7 24.1 97.1 23.3Q97.5 22.5 98.2 22.0Q99.0 21.5 99.5 21.1Q100.0 20.7 100.8 20.6Q101.5 20.4 102.2 20.4Q102.9 20.4 103.7 19.7Q104.5 19.0 106.2 18.4Q108.0 17.8 109.1 18.5Q110.3 19.1 109.8 20.3Q109.4 21.4 108.8 22.1Z"/><path fill-opacity="0.33" d="M71.4 25.1Q73.9 26.2 74.6 27.1Q75.3 28.0 74.2 28.1Q73.0 28.2 71.6 28.0Q70.3 27.9 68.7 27.3Q67.2 26.7 66.3 25.9Q65.3 25.0 64.9 24.5Q64.4 24.1 63.7 23.7Q62.9 23.3 62.5 22.9Q62.1 22.5 61.7 22.0Q61.3 21.5 60.5 20.7Q59.8 19.9 60.4 19.5Q61.0 19.2 62.5 19.6Q64.0 20.0 65.3 20.2Q66.5 20.4 68.0 20.7Q69.5 21.1 69.9 22.0Q70.3 22.9 69.0 23.3Q67.8 23.6 68.3 23.8Q68.9 24.1 71.4 25.1Z"/><path fill-opacity="0.26" d="M104.4 20.1Q104.7 20.8 102.6 21.6Q100.6 22.3 98.6 22.8Q96.6 23.3 95.7 23.8Q94.9 24.3 93.4 24.9Q92.0 25.5 89.7 26.1Q87.4 26.6 84.0 27.3Q80.7 27.9 77.9 27.7Q75.2 27.6 75.7 26.5Q76.3 25.5 77.3 24.8Q78.2 24.0 77.2 23.5Q76.3 23.0 77.5 22.3Q78.7 21.6 81.7 21.4Q84.8 21.2 86.2 20.9Q87.6 20.5 89.6 19.4Q91.7 18.3 95.0 17.8Q98.4 17.3 100.2 17.8Q102.1 18.3 103.2 18.8Q104.2 19.4 104.4 20.1Z"/><path fill-opacity="0.23" d="M81.5 31.0Q82.8 32.4 81.6 33.1Q80.4 33.7 76.8 33.0Q73.2 32.2 69.8 30.7Q66.3 29.2 64.6 28.5Q63.0 27.7 61.5 27.5Q60.0 27.4 57.8 26.8Q55.6 26.2 53.1 25.2Q50.6 24.2 47.8 22.7Q44.9 21.3 43.6 19.9Q42.4 18.5 44.4 18.2Q46.4 17.9 49.4 18.5Q52.5 19.1 55.0 19.7Q57.4 20.3 59.5 21.2Q61.6 22.0 63.1 22.8Q64.5 23.7 66.1 24.2Q67.7 24.7 70.8 25.6Q73.9 26.5 77.0 28.0Q80.2 29.5 81.5 31.0Z"/><path fill-opacity="0.15" d="M90.9 31.1Q93.2 32.0 94.5 33.4Q95.9 34.7 93.3 35.3Q90.7 36.0 87.9 36.0Q85.0 36.0 82.9 36.2Q80.7 36.4 78.6 35.8Q76.6 35.3 75.4 34.5Q74.2 33.8 71.7 33.6Q69.2 33.5 66.3 32.8Q63.3 32.2 63.6 31.1Q63.9 30.0 65.0 29.1Q66.0 28.2 66.3 27.0Q66.5 25.9 69.0 25.5Q71.5 25.1 74.4 25.9Q77.3 26.7 79.1 26.8Q80.9 26.9 83.6 26.8Q86.2 26.6 87.4 27.5Q88.7 28.4 88.6 29.3Q88.6 30.2 90.9 31.1Z"/><path fill-opacity="0.22" d="M69.8 18.2Q69.2 19.1 68.4 19.6Q67.6 20.2 66.8 20.6Q66.1 21.0 65.3 21.4Q64.6 21.9 63.5 22.2Q62.3 22.5 61.0 22.4Q59.6 22.2 58.4 21.7Q57.1 21.1 56.4 20.2Q55.7 19.3 56.1 18.5Q56.4 17.6 56.7 17.0Q56.9 16.4 56.0 15.3Q55.2 14.2 55.2 12.9Q55.3 11.6 57.2 11.8Q59.1 12.1 60.5 13.3Q62.0 14.4 62.7 14.6Q63.5 14.8 65.2 14.5Q66.8 14.1 68.4 14.7Q70.0 15.3 70.2 16.3Q70.5 17.4 69.8 18.2Z"/><path fill-opacity="0.19" d="M72.6 19.6Q70.2 19.8 70.3 20.2Q70.5 20.7 71.4 21.8Q72.3 22.9 70.7 23.1Q69.2 23.3 67.1 22.6Q64.9 22.0 63.3 21.5Q61.7 21.0 60.2 20.5Q58.7 20.0 57.7 19.3Q56.7 18.7 55.8 18.0Q55.0 17.4 54.8 16.8Q54.5 16.1 55.1 15.7Q55.7 15.3 56.1 14.7Q56.4 14.1 57.5 13.7Q58.6 13.3 60.9 14.0Q63.1 14.7 64.3 15.7Q65.5 16.6 67.2 16.7Q68.9 16.8 72.0 17.3Q75.0 17.8 75.0 18.6Q75.0 19.5 72.6 19.6Z"/><path fill-opacity="0.33" d="M36.8 25.0Q37.7 25.8 37.2 26.6Q36.6 27.4 35.1 28.0Q33.7 28.6 31.7 29.0Q29.7 29.4 27.3 29.8Q24.9 30.3 21.7 30.1Q18.6 30.0 17.3 28.6Q16.0 27.3 17.3 26.3Q18.7 25.2 17.2 25.0Q15.7 24.8 10.9 24.1Q6.2 23.3 4.8 22.1Q3.5 20.9 6.0 20.4Q8.4 19.8 11.1 19.5Q13.8 19.1 16.8 19.2Q19.8 19.3 22.1 20.3Q24.5 21.2 25.4 22.0Q26.4 22.8 28.4 23.0Q30.4 23.1 33.1 23.6Q35.8 24.1 36.8 25.0Z"/><path fill-opacity="0.30" d="M114.0 20.2Q116.6 20.2 116.1 21.7Q115.6 23.1 113.5 24.2Q111.4 25.4 110.1 26.0Q108.9 26.7 108.0 27.5Q107.2 28.3 105.9 28.7Q104.7 29.1 103.7 28.6Q102.8 28.1 102.2 27.8Q101.6 27.5 100.4 27.6Q99.2 27.8 97.8 27.6Q96.5 27.4 96.0 26.6Q95.5 25.8 95.6 24.7Q95.6 23.6 96.4 22.3Q97.1 21.1 98.9 20.4Q100.8 19.7 102.5 20.6Q104.3 21.5 104.5 22.8Q104.7 24.0 105.3 23.6Q105.9 23.1 108.7 21.7Q111.5 20.3 114.0 20.2Z"/><path fill-opacity="0.18" d="M77.0 26.5Q77.4 26.8 78.8 27.0Q80.3 27.3 81.5 28.1Q82.6 28.8 81.2 29.9Q79.7 30.9 76.9 31.0Q74.1 31.0 72.8 30.5Q71.4 29.9 70.8 29.9Q70.1 29.9 68.9 30.3Q67.6 30.7 66.1 30.8Q64.6 31.0 63.4 30.8Q62.1 30.6 61.8 29.9Q61.5 29.3 62.6 28.5Q63.7 27.7 65.3 27.1Q66.8 26.5 68.2 26.0Q69.6 25.5 71.0 25.2Q72.5 24.8 73.7 24.9Q74.9 24.9 75.6 25.2Q76.3 25.5 76.5 25.9Q76.7 26.3 77.0 26.5Z"/><path fill-opacity="0.40" d="M68.2 21.0Q67.9 21.5 68.0 21.8Q68.1 22.2 67.8 22.6Q67.6 23.0 67.3 22.9Q66.9 22.9 66.5 22.9Q66.1 23.0 65.9 22.5Q65.7 22.1 65.9 21.7Q66.1 21.3 66.1 20.9Q66.1 20.6 66.3 20.1Q66.5 19.7 66.9 19.8Q67.2 19.8 67.6 19.9Q68.0 19.9 68.3 20.2Q68.6 20.5 68.2 21.0Z"/><path fill-opacity="0.42" d="M68.9 27.7Q68.5 28.4 68.0 28.6Q67.6 28.9 67.3 29.0Q67.0 29.1 66.5 29.8Q66.0 30.5 65.4 30.2Q64.9 30.0 65.0 29.2Q65.1 28.4 65.0 27.8Q64.8 27.2 65.4 27.0Q66.0 26.8 66.4 26.6Q66.7 26.5 67.1 26.0Q67.6 25.5 68.1 25.7Q68.6 25.9 68.9 26.5Q69.2 27.1 68.9 27.7Z"/><path fill-opacity="0.51" d="M59.3 25.6Q59.3 25.8 59.6 26.3Q59.9 26.8 59.2 26.9Q58.6 26.9 57.7 26.6Q56.9 26.3 56.3 25.9Q55.8 25.4 55.4 25.0Q55.0 24.6 55.6 24.6Q56.2 24.5 55.7 24.0Q55.2 23.4 55.5 23.0Q55.9 22.6 56.9 23.3Q57.8 24.0 58.5 24.4Q59.2 24.7 59.2 25.0Q59.3 25.4 59.3 25.6Z"/><path fill-opacity="0.48" d="M71.6 17.4Q71.6 17.8 71.9 18.2Q72.1 18.5 71.7 18.9Q71.3 19.2 70.8 19.3Q70.3 19.5 69.7 19.8Q69.1 20.1 68.8 19.7Q68.5 19.3 68.3 19.0Q68.0 18.7 68.1 18.3Q68.1 17.9 68.5 17.6Q68.8 17.3 69.2 16.9Q69.6 16.6 70.2 16.6Q70.7 16.6 71.2 16.8Q71.6 17.0 71.6 17.4Z"/><path fill-opacity="0.40" d="M65.5 21.0Q65.7 21.2 65.7 21.5Q65.7 21.9 65.4 22.2Q65.2 22.5 64.8 22.5Q64.3 22.6 64.1 22.7Q63.8 22.7 63.4 22.8Q63.0 22.9 62.4 22.9Q61.8 22.9 62.0 22.4Q62.2 22.0 62.8 21.8Q63.4 21.6 63.6 21.4Q63.7 21.2 64.1 21.0Q64.4 20.8 64.8 20.8Q65.3 20.8 65.5 21.0Z"/><path fill-opacity="0.37" d="M78.5 24.0Q78.8 24.4 78.6 24.8Q78.4 25.2 78.0 25.5Q77.7 25.7 77.3 25.8Q77.0 25.8 76.8 25.4Q76.6 25.0 76.1 25.0Q75.5 24.9 75.7 24.4Q75.9 23.8 76.3 23.5Q76.6 23.3 76.8 22.9Q76.9 22.4 77.3 22.2Q77.7 21.9 78.0 22.3Q78.4 22.6 78.3 23.1Q78.2 23.6 78.5 24.0Z"/><path fill-opacity="0.60" d="M61.8 28.4Q61.5 28.7 61.3 29.0Q61.2 29.4 60.8 29.7Q60.4 30.0 59.8 29.8Q59.1 29.6 58.6 29.2Q58.2 28.8 58.1 28.4Q58.1 27.9 57.9 27.5Q57.8 27.1 57.9 26.7Q58.1 26.3 58.7 26.3Q59.3 26.2 59.9 26.4Q60.4 26.6 61.0 26.9Q61.5 27.2 61.8 27.6Q62.2 28.1 61.8 28.4Z"/><path fill-opacity="0.39" d="M78.5 21.7Q78.6 22.5 78.7 22.9Q78.7 23.3 78.7 23.7Q78.8 24.1 78.7 24.6Q78.7 25.1 78.3 25.3Q77.9 25.6 77.5 25.0Q77.1 24.4 76.9 23.9Q76.8 23.4 76.4 23.0Q75.9 22.6 75.9 22.0Q75.9 21.5 76.4 21.6Q76.9 21.8 77.1 21.3Q77.3 20.9 77.8 21.0Q78.3 21.0 78.5 21.7Z"/><path fill-opacity="0.37" d="M62.7 26.8Q63.3 26.7 63.7 26.8Q64.1 27.0 63.4 27.4Q62.7 27.9 61.9 28.2Q61.1 28.5 60.3 28.8Q59.6 29.1 59.0 29.1Q58.3 29.2 58.5 28.9Q58.6 28.6 58.6 28.4Q58.7 28.2 58.7 27.9Q58.7 27.5 59.5 27.1Q60.3 26.6 61.1 26.5Q61.9 26.5 62.0 26.7Q62.1 26.9 62.7 26.8Z"/><path fill-opacity="0.50" d="M67.9 19.1Q67.3 19.5 67.2 19.8Q67.1 20.0 66.9 20.7Q66.7 21.3 66.2 21.3Q65.8 21.3 65.6 20.9Q65.3 20.6 65.2 20.1Q65.2 19.6 65.6 19.3Q66.0 18.9 66.2 18.6Q66.3 18.3 66.6 17.8Q66.9 17.3 67.2 17.4Q67.6 17.5 68.0 17.6Q68.5 17.6 68.5 18.2Q68.5 18.8 67.9 19.1Z"/><path fill-opacity="0.64" d="M44.3 29.6L28.1 31.2A1.11 1.11 0 1 1 28.4 33.4Z"/><path fill-opacity="0.58" d="M89.2 21.6L102.4 19.5A1.03 1.03 0 1 1 101.9 17.5Z"/><path fill-opacity="0.47" d="M42.4 24.3L22.1 22.0A0.66 0.66 0 1 1 22.0 23.3Z"/><path fill-opacity="0.44" d="M47.7 21.0L31.3 15.5A0.66 0.66 0 1 1 30.9 16.7Z"/><path fill-opacity="0.51" d="M89.0 30.6L96.1 33.1A0.76 0.76 0 1 1 96.5 31.7Z"/><path fill-opacity="0.63" d="M121.50 32.30a0.30 0.30 0 1 0 0.60 0a0.30 0.30 0 1 0 -0.60 0Z"/><path fill-opacity="0.69" d="M112.63 24.63a0.30 0.30 0 1 0 0.60 0a0.30 0.30 0 1 0 -0.60 0Z"/><path fill-opacity="0.81" d="M30.34 30.62a0.79 0.79 0 1 0 1.58 0a0.79 0.79 0 1 0 -1.58 0Z"/><path fill-opacity="0.53" d="M106.21 28.12a0.63 0.63 0 1 0 1.25 0a0.63 0.63 0 1 0 -1.25 0Z"/><path fill-opacity="0.76" d="M76.00 16.93a0.68 0.68 0 1 0 1.37 0a0.68 0.68 0 1 0 -1.37 0Z"/><path fill-opacity="0.78" d="M56.85 34.36a0.43 0.43 0 1 0 0.86 0a0.43 0.43 0 1 0 -0.86 0Z"/><path fill-opacity="0.59" d="M79.44 15.05a0.62 0.62 0 1 0 1.24 0a0.62 0.62 0 1 0 -1.24 0Z"/><path fill-opacity="0.62" d="M31.19 21.58a0.49 0.49 0 1 0 0.97 0a0.49 0.49 0 1 0 -0.97 0Z"/><path fill-opacity="0.73" d="M78.19 9.29a0.30 0.30 0 1 0 0.60 0a0.30 0.30 0 1 0 -0.60 0Z"/><path fill-opacity="0.75" d="M36.32 29.44a1.25 1.25 0 1 0 2.49 0a1.25 1.25 0 1 0 -2.49 0Z"/><path fill-opacity="0.79" d="M82.83 16.88a1.15 1.15 0 1 0 2.29 0a1.15 1.15 0 1 0 -2.29 0Z"/><path fill-opacity="0.63" d="M54.68 42.03a0.30 0.30 0 1 0 0.60 0a0.30 0.30 0 1 0 -0.60 0Z"/><path fill-opacity="0.52" d="M27.11 24.31a0.65 0.65 0 1 0 1.31 0a0.65 0.65 0 1 0 -1.31 0Z"/><path fill-opacity="0.61" d="M80.92 15.25a0.82 0.82 0 1 0 1.65 0a0.82 0.82 0 1 0 -1.65 0Z"/><path fill-opacity="0.68" d="M56.16 37.38a0.91 0.91 0 1 0 1.82 0a0.91 0.91 0 1 0 -1.82 0Z"/><path fill-opacity="0.82" d="M28.58 23.94a0.33 0.33 0 1 0 0.65 0a0.33 0.33 0 1 0 -0.65 0Z"/><path fill-opacity="0.67" d="M53.61 34.33a1.36 1.36 0 1 0 2.72 0a1.36 1.36 0 1 0 -2.72 0Z"/><path fill-opacity="0.84" d="M93.14 20.67a1.20 1.20 0 1 0 2.40 0a1.20 1.20 0 1 0 -2.40 0Z"/><path fill-opacity="0.55" d="M94.39 5.45a0.38 0.38 0 1 0 0.76 0a0.38 0.38 0 1 0 -0.76 0Z"/><path fill-opacity="0.85" d="M21.62 23.81a0.54 0.54 0 1 0 1.07 0a0.54 0.54 0 1 0 -1.07 0Z"/><path fill-opacity="0.83" d="M74.40 14.87a0.57 0.57 0 1 0 1.15 0a0.57 0.57 0 1 0 -1.15 0Z"/><path fill-opacity="0.66" d="M31.26 10.86a0.30 0.30 0 1 0 0.60 0a0.30 0.30 0 1 0 -0.60 0Z"/><path fill-opacity="0.74" d="M103.87 24.53a0.35 0.35 0 1 0 0.70 0a0.35 0.35 0 1 0 -0.70 0Z"/><path fill-opacity="0.56" d="M41.79 22.67a1.31 1.31 0 1 0 2.62 0a1.31 1.31 0 1 0 -2.62 0Z"/><path fill-opacity="0.69" d="M46.11 30.49a0.41 0.41 0 1 0 0.82 0a0.41 0.41 0 1 0 -0.82 0Z"/><path fill-opacity="0.59" d="M64.28 36.32a0.37 0.37 0 1 0 0.73 0a0.37 0.37 0 1 0 -0.73 0Z"/><path fill-opacity="0.80" d="M45.37 18.06a0.32 0.32 0 1 0 0.64 0a0.32 0.32 0 1 0 -0.64 0Z"/><path fill-opacity="0.80" d="M51.38 19.44a0.49 0.49 0 1 0 0.99 0a0.49 0.49 0 1 0 -0.99 0Z"/><path fill-opacity="0.60" d="M119.04 28.47a0.47 0.47 0 1 0 0.95 0a0.47 0.47 0 1 0 -0.95 0Z"/><path fill-opacity="0.80" d="M109.89 14.54a0.36 0.36 0 1 0 0.73 0a0.36 0.36 0 1 0 -0.73 0Z"/><path fill-opacity="0.83" d="M108.67 15.08a0.38 0.38 0 1 0 0.76 0a0.38 0.38 0 1 0 -0.76 0Z"/><path fill-opacity="0.78" d="M78.39 13.79a0.81 0.81 0 1 0 1.63 0a0.81 0.81 0 1 0 -1.63 0Z"/><path fill-opacity="0.77" d="M91.10 25.99a1.18 1.18 0 1 0 2.36 0a1.18 1.18 0 1 0 -2.36 0Z"/><path fill-opacity="0.64" d="M28.75 24.94a0.62 0.62 0 1 0 1.24 0a0.62 0.62 0 1 0 -1.24 0Z"/><path fill-opacity="0.80" d="M91.23 18.87a0.30 0.30 0 1 0 0.60 0a0.30 0.30 0 1 0 -0.60 0Z"/><path fill-opacity="0.60" d="M17.70 30.51a0.30 0.30 0 1 0 0.60 0a0.30 0.30 0 1 0 -0.60 0Z"/><path fill-opacity="0.81" d="M54.59 15.23a0.51 0.51 0 1 0 1.02 0a0.51 0.51 0 1 0 -1.02 0Z"/><path fill-opacity="0.69" d="M65.75 17.96a1.45 1.45 0 1 0 2.91 0a1.45 1.45 0 1 0 -2.91 0Z"/><path fill-opacity="0.79" d="M23.14 18.95a0.46 0.46 0 1 0 0.91 0a0.46 0.46 0 1 0 -0.91 0Z"/><path fill-opacity="0.72" d="M98.02 22.97a0.65 0.65 0 1 0 1.30 0a0.65 0.65 0 1 0 -1.30 0Z"/><path fill-opacity="0.69" d="M55.42 36.13a0.83 0.83 0 1 0 1.66 0a0.83 0.83 0 1 0 -1.66 0Z"/></svg>
