<svg xmlns="http://www.w3.org/2000/svg" viewBox="0 0 4 300"><path fill-rule="evenodd" d="M2.61 0.0 2.58 1.0 2.54 2.0 2.51 3.0 2.46 4.0 2.42 5.0 2.37 6.0 2.32 7.0 2.26 8.0 2.20 9.0 2.17 10.0 2.16 11.0 2.15 12.0 2.13 13.0 2.12 14.0 2.10 15.0 2.08 16.0 2.06 17.0 2.04 18.0 2.01 19.0 1.95 20.0 1.87 21.0 1.80 22.0 1.73 23.0 1.66 24.0 1.59 25.0 1.52 26.0 1.45 27.0 1.39 28.0 1.36 29.0 1.34 30.0 1.33 31.0 1.33 32.0 1.39 33.0 1.46 34.0 1.53 35.0 1.60 36.0 1.55 37.0 1.40 38.0 1.26 39.0 1.02 40.0 1.07 41.0 1.28 42.0 1.50 43.0 1.72 44.0 1.78 45.0 1.75 46.0 1.73 47.0 1.71 48.0 1.69 49.0 1.68 50.0 1.66 51.0 1.64 52.0 1.64 53.0 1.64 54.0 1.63 55.0 1.68 56.0 1.85 57.0 2.02 58.0 2.18 59.0 2.35 60.0 2.31 61.0 2.27 62.0 2.23 63.0 2.19 64.0 2.14 65.0 2.09 66.0 2.13 67.0 2.17 68.0 2.21 69.0 2.25 70.0 2.31 71.0 2.42 72.0 2.52 73.0 2.63 74.0 2.74 75.0 2.84 76.0 2.92 77.0 2.87 78.0 2.81 79.0 2.75 80.0 2.86 81.0 2.97 82.0 3.00 83.0 3.00 84.0 3.00 85.0 3.00 86.0 3.00 87.0 3.00 88.0 3.00 89.0 3.00 90.0 3.00 91.0 3.00 92.0 3.00 93.0 3.00 94.0 3.00 95.0 2.98 96.0 2.66 97.0 2.34 98.0 2.18 99.0 2.06 100.0 1.94 101.0 1.83 102.0 1.72 103.0 1.60 104.0 1.61 105.0 1.64 106.0 1.67 107.0 1.70 108.0 1.73 109.0 1.76 110.0 1.78 111.0 1.81 112.0 1.86 113.0 1.92 114.0 1.98 115.0 2.04 116.0 2.10 117.0 2.12 118.0 2.00 119.0 1.89 120.0 1.77 121.0 1.77 122.0 1.81 123.0 1.85 124.0 1.88 125.0 1.90 126.0 1.93 127.0 1.95 128.0 1.97 129.0 2.00 130.0 2.07 131.0 2.14 132.0 2.20 133.0 2.27 134.0 2.33 135.0 2.39 136.0 2.46 137.0 2.55 138.0 2.64 139.0 2.73 140.0 2.81 141.0 2.90 142.0 3.00 143.0 3.00 144.0 3.00 145.0 2.93 146.0 2.81 147.0 2.69 148.0 2.57 149.0 2.45 150.0 2.34 151.0 2.27 152.0 2.34 153.0 2.41 154.0 2.48 155.0 2.55 156.0 2.63 157.0 2.71 158.0 2.79 159.0 2.88 160.0 2.97 161.0 3.00 162.0 3.00 163.0 3.00 164.0 3.00 165.0 3.00 166.0 3.00 167.0 3.00 168.0 3.00 169.0 3.00 170.0 3.00 171.0 3.00 172.0 3.00 173.0 3.00 174.0 3.00 175.0 3.00 176.0 3.00 177.0 3.00 178.0 3.00 179.0 3.00 180.0 3.00 181.0 3.00 182.0 3.00 183.0 3.00 184.0 3.00 185.0 3.00 186.0 2.91 187.0 2.65 188.0 2.30 189.0 2.40 190.0 2.54 191.0 2.61 192.0 2.49 193.0 2.37 194.0 2.25 195.0 2.16 196.0 2.13 197.0 2.10 198.0 2.07 199.0 2.04 200.0 2.00 201.0 1.94 202.0 1.88 203.0 1.81 204.0 1.76 205.0 1.70 206.0 1.65 207.0 1.60 208.0 1.56 209.0 1.51 210.0 1.55 211.0 1.84 212.0 2.13 213.0 2.42 214.0 2.21 215.0 1.97 216.0 1.74 217.0 1.68 218.0 1.71 219.0 1.70 220.0 1.69 221.0 1.68 222.0 1.67 223.0 1.66 224.0 1.66 225.0 1.65 226.0 1.52 227.0 1.39 228.0 1.27 229.0 1.14 230.0 1.01 231.0 1.00 232.0 1.00 233.0 1.10 234.0 1.21 235.0 1.31 236.0 1.42 237.0 1.52 238.0 1.63 239.0 1.68 240.0 1.69 241.0 1.69 242.0 1.70 243.0 1.69 244.0 1.66 245.0 1.62 246.0 1.58 247.0 1.54 248.0 1.59 249.0 1.64 250.0 1.69 251.0 1.73 252.0 1.78 253.0 1.78 254.0 1.77 255.0 1.75 256.0 1.74 257.0 1.72 258.0 1.71 259.0 1.69 260.0 1.68 261.0 1.67 262.0 1.80 263.0 1.93 264.0 2.07 265.0 2.21 266.0 2.25 267.0 2.23 268.0 2.20 269.0 2.18 270.0 2.13 271.0 2.08 272.0 2.03 273.0 1.97 274.0 1.82 275.0 1.68 276.0 1.54 277.0 1.49 278.0 1.47 279.0 1.45 280.0 1.43 281.0 1.41 282.0 1.51 283.0 1.62 284.0 1.74 285.0 1.85 286.0 1.96 287.0 2.08 288.0 2.19 289.0 2.24 290.0 2.29 291.0 2.34 292.0 2.38 293.0 2.42 294.0 2.46 295.0 2.50 296.0 2.53 297.0 2.56 298.0 2.59 299.0 2.61 300.0 0.00 300.0 0.00 0.0ZM3.19 104.4 2.76 104.2 2.86 103.8 3.19 103.6 3.54 103.7 3.48 104.2ZM3.20 194.3 2.76 194.1 2.88 193.7 3.20 193.5 3.53 193.7 3.63 194.1Z"/></svg>